<svg id="Capa_1" enable-background="new 0 0 512 512" height="512" viewBox="0 0 512 512" width="512" xmlns="http://www.w3.org/2000/svg"><g><g><g><g><path d="m11.991 313.289h140.475v189.388h-130.173c-5.69 0-10.302-4.612-10.302-10.302z" fill="#0f818a"/><path d="m500.009 313.289v179.087c0 5.69-4.612 10.302-10.302 10.302h-130.184v-189.389z" fill="#0f818a"/><g fill="#0d6a73"><path d="m11.991 313.289h140.475v38.168h-140.475z"/><path d="m359.523 313.289h140.486v38.168h-140.486z"/><path d="m461.765 313.285v189.397h27.943c5.69 0 10.302-4.612 10.302-10.302v-179.095z"/><path d="m359.525 313.285h38.017v189.397h-38.017z"/><path d="m114.454 313.285h38.017v189.397h-38.017z"/></g><path d="m7.706 284.763h144.761v36.747h-144.761c-4.255 0-7.706-3.451-7.706-7.706v-21.335c0-4.255 3.451-7.706 7.706-7.706z" fill="#d9e7eb"/><path d="m512 292.469v21.335c0 4.255-3.451 7.706-7.716 7.706h-144.761v-36.747h144.761c4.265 0 7.716 3.451 7.716 7.706z" fill="#d9e7eb"/><path d="m512 292.472v21.334c0 4.253-3.455 7.701-7.709 7.701h-37.453c4.261 0 7.709-3.448 7.709-7.701v-21.334c0-4.261-3.448-7.709-7.709-7.709h37.453c4.254 0 7.709 3.448 7.709 7.709z" fill="#b7c4ce"/></g><g><g><path d="m454.15 435.234h-38.484c-5.833 0-10.562-4.729-10.562-10.562v-38.484c0-5.833 4.729-10.562 10.562-10.562h38.484c5.833 0 10.562 4.729 10.562 10.562v38.484c-.001 5.833-4.729 10.562-10.562 10.562z" fill="#9ce6fb"/><g><path d="m427.185 375.625h15.453v59.606h-15.453z" fill="#8edbed"/></g><path d="m412.484 434.744c17.213-17.274 34.493-34.479 51.746-51.713-1.342-4.291-5.348-7.405-10.081-7.405h-4.341c-14.902 14.901-29.803 29.803-44.705 44.705v4.341c.001 4.724 3.104 8.722 7.381 10.072z" fill="#c9f0fd"/><path d="m440.171 375.627h-24.505c-5.833 0-10.562 4.728-10.562 10.561v24.505c11.689-11.689 23.378-23.378 35.067-35.066z" fill="#c9f0fd"/><g fill="#9ce6fb"><path d="m440.176 375.625c-4.327 4.327-8.664 8.664-12.991 12.991v-12.991z"/><path d="m442.638 382.795v21.788c-5.151 5.141-10.302 10.292-15.453 15.432v-21.757c5.151-5.15 10.302-10.312 15.453-15.463z"/></g></g><g><path d="m96.334 435.234h-38.484c-5.833 0-10.562-4.729-10.562-10.562v-38.484c0-5.833 4.729-10.562 10.562-10.562h38.484c5.833 0 10.562 4.729 10.562 10.562v38.484c0 5.833-4.729 10.562-10.562 10.562z" fill="#9ce6fb"/><g><path d="m69.362 375.625h15.453v59.606h-15.453z" fill="#8edbed"/></g><path d="m54.669 434.744c17.213-17.274 34.493-34.479 51.746-51.713-1.342-4.291-5.348-7.405-10.081-7.405h-4.341c-14.902 14.901-29.803 29.803-44.705 44.705v4.341c.001 4.724 3.103 8.722 7.381 10.072z" fill="#c9f0fd"/><path d="m82.356 375.627h-24.506c-5.833 0-10.562 4.728-10.562 10.561v24.505c11.69-11.689 23.379-23.378 35.068-35.066z" fill="#c9f0fd"/><g fill="#9ce6fb"><path d="m82.353 375.625c-4.327 4.327-8.653 8.664-12.99 12.991v-12.991z"/><path d="m84.815 382.806v21.788c-5.151 5.151-10.302 10.292-15.453 15.432v-21.768z"/></g></g></g></g><g><path d="m369.825 104.997v392.53c0 2.845-2.306 5.151-5.151 5.151h-56.299v-101.309c0-2.845-2.306-5.151-5.151-5.151h-94.447c-2.845 0-5.151 2.306-5.151 5.151v101.308h-56.31c-2.845 0-5.151-2.306-5.151-5.151v-392.53h227.66z" fill="#1b96a3"/><path d="m142.17 104.992h227.658v38.174h-227.658z" fill="#0f818a"/><path d="m331.582 104.992v397.69h33.094c2.845 0 5.151-2.306 5.151-5.151v-392.539z" fill="#0f818a"/><g><g><path d="m207.074 84.197c-2.529 0-4.959-1.245-6.42-3.426l-25.669-38.312v34.011c0 4.267-3.459 7.726-7.726 7.726-4.268 0-7.726-3.459-7.726-7.726v-59.424c0-3.401 2.224-6.403 5.479-7.392 3.253-.991 6.774.267 8.666 3.092l25.669 38.312v-34.012c0-4.267 3.459-7.726 7.726-7.726s7.726 3.459 7.726 7.726v59.424c0 3.401-2.224 6.403-5.479 7.392-.742.227-1.498.335-2.246.335z" fill="#0f818a"/></g><g><path d="m257.09 84.197c-15.237 0-27.634-12.396-27.634-27.633v-19.61c0-15.237 12.396-27.634 27.634-27.634 9.684 0 18.784 5.172 23.747 13.497 2.185 3.665.985 8.408-2.68 10.593-3.666 2.184-8.407.986-10.594-2.68-2.223-3.73-6.139-5.957-10.474-5.957-6.716 0-12.181 5.464-12.181 12.181v19.61c0 6.716 5.465 12.181 12.181 12.181 5.745 0 10.574-3.997 11.851-9.357h-4.424c-4.268 0-7.726-3.459-7.726-7.726s3.459-7.726 7.726-7.726h12.48c4.268 0 7.726 3.459 7.726 7.726v4.903c.001 15.235-12.395 27.632-27.632 27.632z" fill="#0f818a"/></g><g><path d="m324.834 84.197c-15.237 0-27.634-12.396-27.634-27.633v-19.61c0-15.237 12.396-27.634 27.634-27.634 15.236 0 27.633 12.396 27.633 27.634v19.61c0 15.236-12.397 27.633-27.633 27.633zm0-59.425c-6.716 0-12.181 5.464-12.181 12.181v19.61c0 6.716 5.465 12.181 12.181 12.181s12.18-5.464 12.18-12.181v-19.61c0-6.716-5.464-12.181-12.18-12.181z" fill="#0f818a"/></g></g><path d="m374.106 113.218h-236.215c-4.257 0-7.708-3.451-7.708-7.708v-21.332c0-4.257 3.451-7.708 7.708-7.708h236.215c4.257 0 7.708 3.451 7.708 7.708v21.331c0 4.258-3.451 7.709-7.708 7.709z" fill="#d9e7eb"/><path d="m381.817 84.179v21.334c0 4.253-3.455 7.701-7.709 7.701h-37.453c4.261 0 7.709-3.448 7.709-7.701v-21.334c0-4.261-3.448-7.709-7.709-7.709h37.453c4.254.001 7.709 3.448 7.709 7.709z" fill="#b7c4ce"/></g><g><path d="m275.242 219.816h-38.484c-5.833 0-10.562-4.729-10.562-10.562v-38.484c0-5.833 4.729-10.562 10.562-10.562h38.484c5.833 0 10.562 4.729 10.562 10.562v38.484c0 5.834-4.729 10.562-10.562 10.562z" fill="#9ce6fb"/><g><path d="m248.274 160.204h15.453v59.617h-15.453z" fill="#8edbed"/></g><path d="m233.577 219.327c17.213-17.274 34.493-34.479 51.746-51.713-1.342-4.291-5.348-7.405-10.081-7.405h-4.341c-14.902 14.901-29.803 29.803-44.705 44.705v4.341c0 4.724 3.103 8.722 7.381 10.072z" fill="#c9f0fd"/><path d="m261.263 160.209h-24.505c-5.833 0-10.562 4.728-10.562 10.562v24.505c11.689-11.689 23.378-23.378 35.067-35.067z" fill="#c9f0fd"/><g fill="#9ce6fb"><path d="m261.264 160.204-12.99 12.991v-12.991z"/><path d="m263.726 167.374v21.799l-15.453 15.422v-21.757c5.152-5.152 10.302-10.313 15.453-15.464z"/></g></g><g><path d="m275.242 330.047h-38.484c-5.833 0-10.562-4.729-10.562-10.562v-38.484c0-5.833 4.729-10.562 10.562-10.562h38.484c5.833 0 10.562 4.729 10.562 10.562v38.484c0 5.833-4.729 10.562-10.562 10.562z" fill="#9ce6fb"/><g><path d="m248.274 270.444h15.453v59.606h-15.453z" fill="#8edbed"/></g><path d="m233.577 329.557c17.213-17.274 34.493-34.479 51.746-51.713-1.342-4.291-5.348-7.405-10.081-7.405h-4.341c-14.902 14.901-29.803 29.803-44.705 44.705v4.341c0 4.724 3.103 8.722 7.381 10.072z" fill="#c9f0fd"/><path d="m261.263 270.44h-24.505c-5.833 0-10.562 4.728-10.562 10.562v24.505c11.689-11.69 23.378-23.379 35.067-35.067z" fill="#c9f0fd"/><g fill="#9ce6fb"><path d="m261.264 270.444c-4.327 4.327-8.664 8.653-12.991 12.991v-12.991z"/><path d="m263.726 277.614v21.788l-15.452 15.422v-21.757z"/></g></g><g><path d="m318.679 502.682h-125.358v-106.2c0-5.833 4.729-10.562 10.562-10.562h104.235c5.833 0 10.562 4.729 10.562 10.562v106.2z" fill="#9ce6fb"/><g><path d="m248.274 385.917h15.453v116.761h-15.453z" fill="#8edbed"/></g><g fill="#c9f0fd"><path d="m257.958 385.921c-21.554 21.493-43.174 42.92-64.637 64.504v31.514c31.945-31.957 63.86-63.945 95.688-96.019h-31.051z"/><path d="m267.687 502.682h50.992v-51.322c-17.009 17.096-33.99 34.219-50.992 51.322z"/><path d="m217.778 502.682h31.871l69.03-69.03v-31.871z"/></g><g fill="#9ce6fb"><path d="m263.726 385.917v25.456c-5.151 5.172-10.291 10.343-15.453 15.504v-31.318c3.235-3.204 6.459-6.428 9.684-9.642z"/><path d="m263.726 456.731v31.864l-14.082 14.082h-1.37v-30.493z"/></g></g></g><g><path d="m180.958 170.233h-10.454c-4.268 0-7.726-3.459-7.726-7.726s3.459-7.726 7.726-7.726h10.454c4.268 0 7.726 3.459 7.726 7.726s-3.459 7.726-7.726 7.726z" fill="#0f818a"/></g><g><path d="m192.393 194.144h-10.453c-4.268 0-7.726-3.459-7.726-7.726s3.459-7.726 7.726-7.726h10.454c4.268 0 7.726 3.459 7.726 7.726s-3.459 7.726-7.727 7.726z" fill="#0d6a73"/></g><g><path d="m330.06 274.29h-10.454c-4.268 0-7.726-3.459-7.726-7.726s3.459-7.726 7.726-7.726h10.454c4.268 0 7.726 3.459 7.726 7.726.001 4.267-3.458 7.726-7.726 7.726z" fill="#09797c"/></g><g><path d="m440.135 476.897h-10.454c-4.268 0-7.726-3.459-7.726-7.726s3.459-7.726 7.726-7.726h10.454c4.268 0 7.726 3.459 7.726 7.726s-3.459 7.726-7.726 7.726z" fill="#0d6a73"/></g><g><path d="m330.06 345.974h-10.454c-4.268 0-7.726-3.459-7.726-7.726s3.459-7.726 7.726-7.726h10.454c4.268 0 7.726 3.459 7.726 7.726.001 4.267-3.458 7.726-7.726 7.726z" fill="#09797c"/></g><g><path d="m344.995 318.595h-10.454c-4.268 0-7.726-3.459-7.726-7.726s3.459-7.726 7.726-7.726h10.454c4.268 0 7.726 3.459 7.726 7.726s-3.458 7.726-7.726 7.726z" fill="#0d6a73"/></g><g><path d="m187.166 359.185h-10.454c-4.268 0-7.726-3.459-7.726-7.726s3.459-7.726 7.726-7.726h10.454c4.268 0 7.726 3.459 7.726 7.726 0 4.266-3.458 7.726-7.726 7.726z" fill="#0f818a"/></g><g><path d="m54.515 476.897h-10.454c-4.268 0-7.726-3.459-7.726-7.726s3.459-7.726 7.726-7.726h10.454c4.268 0 7.726 3.459 7.726 7.726s-3.458 7.726-7.726 7.726z" fill="#0d6a73"/></g><g><path d="m407.921 359.185h-10.454c-4.268 0-7.726-3.459-7.726-7.726s3.459-7.726 7.726-7.726h10.454c4.268 0 7.726 3.459 7.726 7.726 0 4.266-3.459 7.726-7.726 7.726z" fill="#085e5e"/></g></g></svg>