<?xml version="1.0" standalone="no"?>
<!DOCTYPE svg PUBLIC "-//W3C//DTD SVG 20010904//EN"
 "http://www.w3.org/TR/2001/REC-SVG-20010904/DTD/svg10.dtd">
<svg version="1.0" xmlns="http://www.w3.org/2000/svg"
 width="862.000000pt" height="272.000000pt" viewBox="0 0 862.000000 272.000000"
 preserveAspectRatio="xMidYMid meet">

<g transform="translate(0.000000,272.000000) scale(0.100000,-0.100000)"
fill="#000000" stroke="none">
<path d="M443 2642 c-11 -31 -112 -281 -223 -556 -110 -274 -200 -500 -198
-501 8 -8 109 -8 117 1 11 11 411 997 411 1013 0 8 1147 11 3985 11 l3985 0 9
23 c5 12 11 32 15 45 l7 22 -4043 0 -4043 0 -22 -58z"/>
<path d="M3195 2368 c-73 -26 -125 -91 -125 -157 0 -54 28 -101 102 -172 89
-86 108 -114 108 -164 0 -111 -131 -178 -246 -126 -61 28 -87 66 -81 120 6 56
-5 38 -39 -61 -28 -82 -28 -86 -12 -70 16 16 57 15 108 -3 106 -37 252 -2 305
74 70 102 57 150 -81 292 -97 99 -104 110 -104 147 0 93 107 147 208 106 48
-19 65 -49 64 -111 0 -36 2 -43 10 -30 13 25 58 157 52 157 -2 0 -12 -5 -22
-11 -14 -9 -32 -8 -74 5 -63 18 -128 20 -173 4z"/>
<path d="M6218 2366 c-142 -51 -264 -194 -288 -339 -15 -95 15 -212 67 -259
107 -97 311 -40 435 120 78 103 105 222 73 329 -32 108 -98 163 -195 162 -30
0 -71 -6 -92 -13z m158 -11 c26 -11 40 -26 56 -62 19 -43 20 -53 10 -125 -22
-150 -93 -311 -166 -376 -99 -87 -238 -78 -273 19 -38 101 48 375 149 478 73
75 149 97 224 66z"/>
<path d="M728 2363 c28 -2 52 -5 52 -7 0 -1 -49 -139 -109 -307 l-109 -304
-48 -6 c-32 -4 -13 -6 56 -6 58 1 84 2 58 4 -27 2 -48 7 -48 10 0 10 190 545
199 561 5 8 33 -87 70 -235 72 -286 91 -356 97 -351 4 5 134 370 191 535 l34
102 52 4 c29 2 3 3 -58 3 -60 0 -87 -1 -59 -3 l52 -4 -48 -137 c-72 -204 -129
-358 -130 -352 -1 3 -30 115 -64 250 l-62 245 -90 1 c-49 0 -65 -1 -36 -3z"/>
<path d="M1513 2363 c30 -3 47 -9 47 -17 0 -7 -17 -60 -38 -117 -22 -57 -69
-190 -107 -296 l-67 -192 -52 -4 c-28 -2 14 -3 94 -3 80 0 121 1 92 3 -46 4
-53 7 -47 21 4 9 24 67 45 127 64 182 65 185 103 185 17 0 49 -5 70 -11 52
-14 62 -43 48 -131 -17 -106 -14 -141 14 -172 21 -22 32 -26 77 -25 29 1 42 4
28 6 -54 10 -60 35 -38 165 10 62 9 74 -6 103 -17 31 -68 64 -104 66 -9 1 3 5
28 10 61 12 128 48 154 82 15 20 21 42 20 74 -1 40 -6 51 -37 79 -49 45 -92
54 -242 52 -71 -1 -109 -3 -82 -5z m222 -17 c41 -17 55 -42 55 -96 0 -109 -72
-169 -202 -170 l-38 0 45 128 c25 70 47 133 50 140 6 16 48 15 90 -2z"/>
<path d="M2258 2363 c28 -2 52 -7 52 -11 0 -4 -49 -142 -109 -307 l-109 -300
-48 -6 c-27 -3 14 -6 91 -6 77 1 119 2 93 4 -27 2 -48 8 -48 13 0 5 41 123 91
262 50 139 98 274 107 300 15 47 16 47 66 51 28 2 -14 3 -94 3 -80 0 -121 -1
-92 -3z"/>
<path d="M3798 2363 c28 -2 52 -5 52 -6 0 -1 -32 -90 -71 -197 -83 -228 -96
-310 -59 -368 56 -89 230 -97 320 -15 55 49 80 106 158 358 l69 220 49 6 c31
4 9 6 -61 6 -60 -1 -86 -2 -57 -4 28 -2 52 -7 52 -10 0 -13 -112 -371 -137
-438 -55 -146 -193 -225 -290 -165 -76 46 -72 104 32 392 l77 217 52 4 c28 2
-14 3 -94 3 -80 0 -121 -1 -92 -3z"/>
<path d="M4617 2361 l51 -6 -47 -130 c-26 -71 -75 -210 -110 -307 l-63 -177
-52 -4 c-28 -2 14 -3 94 -3 80 0 121 1 92 3 -40 3 -52 8 -49 17 3 8 25 67 48
133 l43 119 54 -4 c102 -9 209 27 269 90 57 60 69 131 31 188 -52 76 -98 90
-283 88 -84 -1 -112 -3 -78 -7z m216 -12 c75 -20 100 -79 73 -172 -30 -102
-104 -159 -208 -161 -31 0 -59 2 -62 5 -3 3 19 75 49 160 31 85 58 160 60 167
5 15 37 15 88 1z"/>
<path d="M5337 2361 l51 -6 -47 -130 c-26 -71 -75 -210 -110 -307 l-63 -177
-52 -4 c-28 -2 14 -3 94 -3 80 0 121 1 92 3 -40 3 -52 8 -49 17 3 8 25 67 48
133 l43 119 54 -4 c245 -21 417 191 262 321 -45 39 -90 47 -240 45 -86 -1
-116 -3 -83 -7z m252 -26 c90 -46 44 -237 -71 -296 -40 -21 -148 -33 -162 -18
-3 3 19 75 49 160 31 85 58 160 60 168 7 17 81 9 124 -14z"/>
<path d="M6903 2363 c27 -2 47 -9 47 -16 0 -6 -48 -145 -106 -309 l-107 -297
-51 -4 c-28 -2 14 -3 94 -3 80 0 121 1 92 3 -29 2 -52 8 -50 12 2 5 28 79 58
165 l55 156 41 0 c60 0 104 -18 115 -48 6 -16 6 -58 -3 -123 -17 -140 3 -171
105 -168 28 1 34 3 17 6 -55 10 -57 24 -34 203 7 54 -18 93 -78 120 l-38 17
53 12 c90 20 157 83 157 149 0 29 -41 83 -80 106 -31 19 -53 21 -185 22 -82 1
-129 -1 -102 -3z m209 -13 c47 -14 68 -43 68 -98 0 -111 -71 -171 -202 -172
l-38 0 45 128 c25 70 47 133 50 140 5 15 28 15 77 2z"/>
<path d="M7565 2360 c-9 -15 -55 -152 -55 -164 0 -6 12 7 26 29 67 101 118
135 205 135 45 0 50 -2 44 -17 -5 -14 -108 -299 -207 -575 -8 -24 -16 -27 -61
-31 -29 -2 13 -3 93 -4 80 0 122 3 93 6 l-51 6 99 280 c55 154 105 293 111
309 11 27 13 28 75 24 83 -5 97 -19 103 -106 l5 -67 30 85 c17 46 32 88 33 92
5 12 -536 10 -543 -2z"/>
<path d="M2503 1087 c-34 -83 -135 -332 -223 -552 -89 -220 -164 -406 -167
-412 -4 -10 12 -13 59 -13 l64 0 168 418 c93 229 187 463 210 519 l41 103
2068 0 2068 0 15 35 c7 19 14 39 14 45 0 7 -672 10 -2127 10 l-2128 0 -62
-153z"/>
<path d="M5741 904 c-13 -16 -117 -162 -231 -324 l-207 -295 -44 -6 c-28 -4
-8 -6 56 -6 67 0 85 2 53 6 l-47 6 87 124 87 124 99 -1 c55 -1 101 -4 103 -5
2 -2 6 -58 10 -125 l6 -121 -54 -4 c-30 -2 11 -3 91 -3 80 0 122 1 94 3 l-51
4 -6 172 c-4 95 -7 233 -8 307 0 74 -4 143 -8 154 -7 17 -9 16 -30 -10z m-44
-351 c-3 -2 -46 -2 -96 -1 l-91 3 92 131 93 131 3 -130 c1 -71 1 -132 -1 -134z"/>
<path d="M2838 903 c46 -4 52 -7 47 -22 -3 -10 -52 -148 -109 -307 l-103 -289
-49 -6 c-27 -3 16 -6 96 -6 80 1 121 2 93 4 -29 2 -53 9 -53 14 0 6 48 145
107 309 l108 299 50 4 c27 2 -15 3 -95 3 -80 0 -121 -1 -92 -3z"/>
<path d="M3328 903 c28 -2 52 -5 52 -7 0 -1 -49 -139 -109 -307 l-109 -304
-48 -6 c-31 -4 -9 -6 61 -6 61 1 86 2 58 4 -29 2 -53 7 -53 11 0 4 43 129 95
277 53 149 98 276 101 284 2 8 6 12 9 10 2 -3 36 -132 75 -289 39 -156 75
-290 79 -298 5 -9 27 41 63 145 31 87 82 231 113 320 l58 162 51 4 c28 2 2 3
-59 4 -72 0 -92 -2 -59 -6 l51 -6 -86 -242 c-47 -133 -88 -239 -91 -237 -3 3
-32 114 -66 247 l-60 242 -90 1 c-49 0 -65 -1 -36 -3z"/>
<path d="M4118 903 c49 -4 53 -6 46 -26 -4 -12 -53 -150 -109 -307 l-102 -285
-49 -6 c-27 -4 46 -6 162 -5 l210 1 69 35 c41 20 93 58 125 90 165 165 158
406 -14 486 -48 22 -61 24 -221 22 -93 -1 -146 -3 -117 -5z m320 -27 c52 -27
72 -69 72 -152 0 -171 -99 -346 -235 -414 -40 -20 -69 -26 -142 -28 -59 -3
-93 0 -93 6 0 13 198 570 212 596 9 16 19 18 82 14 39 -3 86 -12 104 -22z"/>
<path d="M4988 903 c28 -2 52 -7 52 -11 -1 -4 -50 -142 -109 -307 l-108 -300
-49 -6 c-27 -3 16 -6 96 -6 80 1 121 2 93 4 -29 2 -53 7 -53 11 0 4 48 143
106 309 l108 302 50 4 c28 2 -14 3 -94 3 -80 0 -121 -1 -92 -3z"/>
</g>
</svg>
