<svg id="Capa_1" enable-background="new 0 0 512 512" height="512" viewBox="0 0 512 512" width="512" xmlns="http://www.w3.org/2000/svg"><g><path d="m441.073 328.49-110.073-33.99 143.5 210h30v-90c0-40.455-26.693-74.675-63.427-86.01z" fill="#ffad84"/><path d="m422.04 328.49-91.04-33.99v-212h-150v212l-110.073 33.99c-36.734 11.335-63.427 45.554-63.427 86.01v90h75l15-60 15 60h128.5l15-30 15 30h128.5l15-60 15 60h45v-90c0-40.456-22.078-74.675-52.46-86.01z" fill="#ffd4a1"/><g fill="#ffad84"><path d="m414.5 429.5c-8.284 0-15 6.716-15 15v60h30v-60c0-8.284-6.716-15-15-15z"/><path d="m97.5 429.5c-8.284 0-15 6.716-15 15v60h30v-60c0-8.284-6.716-15-15-15z"/><path d="m128.5 37.5c-20.711 0-37.5 16.79-37.5 37.5 0 20.711 16.789 37.5 37.5 37.5h127.5v-75z"/></g><path d="m383.5 37.5h-127.5v75h127.5c20.711 0 37.5-16.789 37.5-37.5 0-20.71-16.789-37.5-37.5-37.5z" fill="#fe8566"/><path d="m346 7.5-90 225c66.274 0 120-53.726 120-120v-105z" fill="#ffad84"/><path d="m346 112.5v-105h-210v105c0 66.274 53.726 120 120 120 49.706 0 90-53.726 90-120z" fill="#ffd4a1"/><path d="m320.969 90.048-12.994-22.51c-10.37-17.95-29.755-30.038-51.975-30.038v165c41.421 0 75-33.579 75-75 0-13.646-3.662-26.429-10.031-37.452z" fill="#adf2f5"/><path d="m301 127.5c0-13.646-2.198-26.429-6.019-37.452l-7.796-22.51c-6.222-17.95-17.853-30.038-31.185-30.038-22.22 0-41.605 12.088-51.975 30.039l-12.994 22.51c-6.369 11.022-10.031 23.805-10.031 37.451 0 41.421 33.579 75 75 75 24.853 0 45-33.579 45-75z" fill="#d6f9fa"/><circle cx="256" cy="142.5" fill="#83b3f1" r="30"/><circle cx="256" cy="67.5" r="7.5"/><path d="m241 292.5 15 30 15-30v-30l-15-30-15 30z" fill="#83b3f1"/><path d="m241 292.5h30v212h-30z" fill="#fff"/><path d="m256 142.5c-8.284 0-15 6.716-15 15v105h30v-105c0-8.284-6.716-15-15-15z" fill="#98d3f3"/><circle cx="256" cy="67.5" r="7.5"/><path d="m492.563 356.076c-12.291-16.397-29.792-28.74-49.277-34.753l-104.786-32.357v-79.285c25.851-22.006 42.686-54.066 44.772-89.682h.228c24.813 0 45-20.187 45-45s-20.187-45-45-45v-22.499c0-4.142-3.357-7.5-7.5-7.5h-240c-4.142 0-7.5 3.358-7.5 7.5v22.5c-24.813 0-45 20.187-45 45s20.187 45 45 45h.228c2.086 35.616 18.921 67.676 44.772 89.682v79.284l-104.784 32.357c-19.486 6.014-36.987 18.356-49.279 34.754-12.716 16.964-19.437 37.166-19.437 58.423v90c0 4.142 3.358 7.5 7.5 7.5h497c4.143 0 7.5-3.358 7.5-7.5v-90c0-21.257-6.722-41.459-19.437-58.424zm-349.063-243.576v-15c0-4.142-3.358-7.5-7.5-7.5s-7.5 3.358-7.5 7.5v7.5c-16.542 0-30-13.458-30-30s13.458-30 30-30v7.5c0 4.142 3.358 7.5 7.5 7.5s7.5-3.358 7.5-7.5v-37.5h225v37.5c0 4.142 3.357 7.5 7.5 7.5s7.5-3.358 7.5-7.5v-7.5c16.542 0 30 13.458 30 30s-13.458 30-30 30v-7.5c0-4.142-3.357-7.5-7.5-7.5s-7.5 3.358-7.5 7.5v15c0 53.766-38.132 99.732-90 110.243v-15.871c35.109-9.938 60-42.37 60-79.372 0-14.459-3.816-28.707-11.036-41.202l-12.994-22.511c-12.04-20.841-34.445-33.787-58.47-33.787s-46.429 12.946-58.471 33.789l-12.993 22.507c-7.22 12.498-11.037 26.746-11.037 41.204 0 37.002 24.891 69.434 60 79.372v15.871c-51.867-10.512-89.999-56.477-89.999-110.243zm120 172.5h-15v-15h15zm-30-142.5c0-12.407 10.093-22.5 22.5-22.5 12.406 0 22.5 10.093 22.5 22.5 0 2.582-.455 5.106-1.297 7.479-3.102-8.719-11.434-14.979-21.203-14.979-9.77 0-18.101 6.26-21.203 14.979-.842-2.373-1.297-4.897-1.297-7.479zm15 15c0-4.136 3.364-7.5 7.5-7.5s7.5 3.364 7.5 7.5v97.5h-15zm30 14.974c9.343-7.032 15-18.146 15-29.974 0-20.678-16.822-37.5-37.5-37.5s-37.5 16.822-37.5 37.5c0 11.827 5.657 22.941 15 29.974v18.675c-26.549-9.391-45-34.827-45-63.649 0-11.827 3.121-23.48 9.026-33.703l12.993-22.507c9.369-16.216 26.796-26.29 45.481-26.29 18.686 0 36.113 10.074 45.48 26.288l12.995 22.512c5.904 10.219 9.025 21.873 9.025 33.7 0 28.822-18.451 54.258-45 63.649zm-30 127.526h15v197h-15zm-233.5 114.5c0-36.428 23.364-68.113 58.14-78.845l110.073-33.989c3.143-.971 5.287-3.876 5.287-7.166v-73.819c13.468 8.431 28.661 14.423 45 17.33v258.989h-113.5v-52.5c0-12.407-10.093-22.5-22.5-22.5-4.142 0-7.5 3.358-7.5 7.5s3.358 7.5 7.5 7.5c4.136 0 7.5 3.364 7.5 7.5v52.5h-90zm482 82.5h-90v-52.5c0-4.136 3.364-7.5 7.5-7.5 4.143 0 7.5-3.358 7.5-7.5s-3.357-7.5-7.5-7.5c-12.406 0-22.5 10.093-22.5 22.5v52.5h-113.5v-258.989c16.339-2.907 31.532-8.899 45-17.33v73.819c0 3.29 2.144 6.195 5.287 7.166l110.073 33.99c34.776 10.731 58.14 42.416 58.14 78.844z"/></g></svg>