<svg height="511pt" viewBox="-42 1 511 511.999" width="511pt" xmlns="http://www.w3.org/2000/svg"><path d="m414.523438 207.859375h-34.054688v-33.859375c0-6.894531-5.605469-12.5-12.5-12.5h-39.957031c-6.894531 0-12.5 5.605469-12.5 12.5v33.859375h-34.050781c-6.894532 0-12.5 5.609375-12.5 12.5v39.753906c0 6.894531 5.605468 12.5 12.5 12.5h34.050781v33.859375c0 6.894532 5.605469 12.5 12.5 12.5h39.957031c6.894531 0 12.5-5.605468 12.5-12.5v-33.859375h34.054688c6.890624 0 12.5-5.605469 12.5-12.5v-39.753906c0-6.890625-5.609376-12.5-12.5-12.5zm-2.5 49.753906h-34.054688c-6.890625 0-12.5 5.605469-12.5 12.5v33.859375h-34.957031v-33.859375c0-6.894531-5.605469-12.5-12.5-12.5h-34.050781v-34.753906h34.050781c6.894531 0 12.5-5.605469 12.5-12.5v-33.859375h34.957031v33.859375c0 6.894531 5.609375 12.5 12.5 12.5h34.054688zm0 0"/><path d="m235.789062 274.597656h-11.878906c-4.214844-4.421875-9.65625-7.660156-15.777344-9.160156 5.242188-3.386719 10.199219-7.28125 14.800782-11.664062 3-2.855469 3.113281-7.601563.257812-10.601563-2.855468-3-7.601562-3.113281-10.601562-.261719-15.875 15.117188-36.714844 23.441406-58.6875 23.441406-46.695313 0-84.6875-37.585937-84.6875-83.789062v-98.625h169.378906v98.625c0 11.605469-2.367188 22.847656-7.027344 33.410156-1.671875 3.789063.042969 8.21875 3.832032 9.890625 3.789062 1.671875 8.21875-.042969 9.890624-3.832031 3.023438-6.851562 5.222657-13.941406 6.597657-21.210938h6.261719c15.886718 0 28.808593-12.835937 28.808593-28.605468v-18.355469c0-10.019531-5.222656-18.847656-13.105469-23.960937v-73.570313c0-31.058594-25.480468-56.328125-56.804687-56.328125h-167.375c-8.667969 0-15.71875 7.015625-15.71875 15.636719v114.261719c-7.882813 5.109374-13.105469 13.941406-13.105469 23.960937v18.355469c0 15.769531 12.925782 28.601562 28.8125 28.601562h6.265625c5.03125 26.578125 20.835938 49.4375 42.734375 63.9375-7.636718.941406-14.460937 4.539063-19.515625 9.839844h-7.125c-39.4375 0-71.519531 31.964844-71.519531 71.257812v151.234376c0 8.222656 6.703125 14.914062 14.945312 14.914062h276.914063c8.242187 0 14.945313-6.691406 14.945313-14.914062v-101.085938c0-4.140625-3.359376-7.5-7.5-7.5-4.144532 0-7.5 3.359375-7.5 7.5v7h-19.402344c-5.789063 0-10.5 4.710938-10.5 10.5v83.5h-217v-12c0-4.140625-3.359375-7.5-7.5-7.5-4.144532 0-7.5 3.359375-7.5 7.5v12h-14.902344v-79h14.902344v30c0 4.140625 3.359375 7.5 7.5 7.5s7.5-3.359375 7.5-7.5v-34.5c0-5.789062-4.710938-10.5-10.5-10.5h-19.402344v-57.148438c0-30.683593 24.8125-55.691406 55.511719-56.230468-.554688 2.375-.855469 4.839844-.855469 7.378906v119.976562c-9.835938 4.414063-16.703125 14.269532-16.703125 25.699219 0 15.539063 12.675781 28.179688 28.261719 28.179688 15.582031 0 28.261718-12.640625 28.261718-28.179688 0-14.371093-10.855468-26.257812-24.820312-27.957031v-117.71875c0-2.648438.609375-5.152344 1.664062-7.402344h27.0625v.652344c0 21.894531 17.953126 39.703125 40.019532 39.703125 22.070312 0 40.023437-17.808594 40.023437-39.703125v-.652344h22.308594c1.058594 2.25 1.667969 4.753906 1.667969 7.402344v95.953125c-14.433594 3.257813-25.246094 16.136719-25.246094 31.496094v39.257812c0 4.140625 3.355469 7.5 7.5 7.5h8.816406c4.144532 0 7.5-3.359375 7.5-7.5s-3.355468-7.5-7.5-7.5h-1.316406v-31.757812c0-9.539063 7.804688-17.300781 17.398438-17.300781s17.394531 7.761718 17.394531 17.300781v31.757812h-1.316407c-4.140624 0-7.5 3.359375-7.5 7.5s3.359376 7.5 7.5 7.5h8.816407c4.144531 0 7.5-3.359375 7.5-7.5v-39.257812c0-15.113281-10.464844-27.828125-24.546875-31.335938v-96.113281c0-2.546875-.304688-5.023438-.863282-7.402344h3.746094c31.164063 0 56.519532 25.234375 56.519532 56.253906v14.148438c0 4.140625 3.359374 7.5 7.5 7.5 4.140624 0 7.5-3.359375 7.5-7.5v-14.148438c0-39.289062-32.082032-71.253906-71.515626-71.253906zm36.167969-102.382812c0 7.5-6.195312 13.601562-13.808593 13.601562h-4.613282c.035156-1.082031.058594-2.164062.058594-3.253906v-42.304688h4.554688c7.613281 0 13.808593 6.101563 13.808593 13.601563zm-222.296875 13.601562c-7.617187 0-13.8125-6.101562-13.8125-13.601562v-18.355469c0-7.5 6.195313-13.601563 13.8125-13.601563h4.554688v42.304688c0 1.089844.023437 2.171875.058594 3.253906zm4.554688-104.316406v43.757812h-4.554688c-.238281 0-.472656.011719-.707031.019532v-109.640625c0-.351563.320313-.636719.71875-.636719h167.375c23.050781 0 41.804687 18.539062 41.804687 41.328125v68.945313c-.234374-.003907-.46875-.015626-.703124-.015626h-4.554688v-43.757812c0-6.925781-5.660156-12.5625-12.613281-12.5625h-174.152344c-6.957031 0-12.613281 5.636719-12.613281 12.5625zm223.1875 336.5h14.902344v79h-14.902344zm-182.425782 24.675781c0 7.265625-5.949218 13.179688-13.261718 13.179688s-13.261719-5.914063-13.261719-13.179688 5.949219-13.175781 13.261719-13.175781 13.261718 5.910156 13.261718 13.175781zm58.925782-127.722656c-13.796875 0-25.019532-11.082031-25.019532-24.703125v-12.050781c8 2.054687 16.382813 3.152343 25.019532 3.152343 8.542968 0 16.9375-1.078124 25.023437-3.152343v12.050781c0 13.621094-11.226562 24.703125-25.023437 24.703125zm0 0"/><path d="m211.382812 367.632812c0-8.210937-3.234374-15.917968-9.105468-21.703124-5.847656-5.757813-13.617188-8.929688-21.871094-8.929688s-16.019531 3.171875-21.871094 8.933594l-4.632812 4.5625-4.632813-4.5625c-5.847656-5.761719-13.613281-8.933594-21.867187-8.933594-8.261719 0-16.027344 3.171875-21.871094 8.933594-5.871094 5.785156-9.105469 13.488281-9.105469 21.699218 0 8.210938 3.234375 15.917969 9.105469 21.699219l39.757812 39.164063c2.3125 2.269531 5.371094 3.519531 8.613282 3.519531 3.25 0 6.308594-1.25 8.617187-3.523437l39.757813-39.15625c5.871094-5.785157 9.105468-13.492188 9.105468-21.703126zm-19.632812 11.011719-37.847656 37.277344-37.847656-37.277344c-2.984376-2.941406-4.628907-6.851562-4.628907-11.011719 0-4.160156 1.644531-8.074218 4.632813-11.015624 3.019531-2.976563 7.046875-4.617188 11.339844-4.617188 4.292968 0 8.320312 1.640625 11.34375 4.617188l9.898437 9.75c2.917969 2.875 7.605469 2.875 10.523437 0l9.894532-9.75c3.027344-2.976563 7.054687-4.617188 11.347656-4.617188s8.320312 1.640625 11.34375 4.617188c2.984375 2.941406 4.628906 6.855468 4.628906 11.015624.003906 4.160157-1.640625 8.070313-4.628906 11.011719zm0 0"/><path d="m145.230469 144.3125c-4.140625 0-7.5 3.359375-7.5 7.5v33.59375c0 6.894531 5.605469 12.5 12.5 12.5h12.34375c4.144531 0 7.5-3.355469 7.5-7.5 0-4.140625-3.355469-7.5-7.5-7.5h-9.84375v-31.09375c0-4.144531-3.359375-7.5-7.5-7.5zm0 0"/><path d="m153.902344 238.402344c13.003906 0 26.007812-4.902344 35.902344-14.703125 2.945312-2.914063 2.96875-7.664063.054687-10.605469-2.914063-2.945312-7.664063-2.964844-10.609375-.054688-13.976562 13.84375-36.71875 13.84375-50.695312.003907-2.941407-2.914063-7.6875-2.894531-10.605469.050781-2.914063 2.941406-2.890625 7.691406.054687 10.605469 9.898438 9.804687 22.894532 14.703125 35.898438 14.703125zm0 0"/><path d="m126.007812 129.328125c1.929688 0 3.863282-.742187 5.328126-2.222656 2.914062-2.945313 2.890624-7.691407-.050782-10.609375-13.898437-13.761719-36.515625-13.761719-50.414062 0-2.945313 2.917968-2.964844 7.664062-.050782 10.609375 2.914063 2.945312 7.664063 2.964843 10.605469.050781 8.078125-8 21.226563-8 29.304688 0 1.460937 1.449219 3.367187 2.171875 5.277343 2.171875zm0 0"/><path d="m221.660156 129.328125c1.929688 0 3.863282-.742187 5.328125-2.222656 2.914063-2.945313 2.890625-7.695313-.054687-10.609375-13.898438-13.761719-36.515625-13.761719-50.417969 0-2.941406 2.917968-2.964844 7.664062-.050781 10.609375 2.914062 2.941406 7.664062 2.964843 10.605468.050781 8.082032-8 21.230469-8 29.3125 0 1.460938 1.449219 3.367188 2.171875 5.277344 2.171875zm0 0"/><path d="m100.167969 143.695312v20.359376c0 4.140624 3.359375 7.5 7.5 7.5s7.5-3.359376 7.5-7.5v-20.359376c0-4.140624-3.359375-7.5-7.5-7.5s-7.5 3.359376-7.5 7.5zm0 0"/><path d="m192.636719 143.695312v20.359376c0 4.140624 3.359375 7.5 7.5 7.5 4.144531 0 7.5-3.359376 7.5-7.5v-20.359376c0-4.140624-3.355469-7.5-7.5-7.5-4.140625 0-7.5 3.359376-7.5 7.5zm0 0"/></svg>