<svg id="Capa_1" enable-background="new 0 0 512 512" height="512" viewBox="0 0 512 512" width="512" xmlns="http://www.w3.org/2000/svg"><g><g><path d="m375.629 448.05c-17.62-50.539-55.188-72.915-55.188-72.915h-177.708s-37.569 22.376-55.188 72.915c-5.415 15.497-8.943 33.638-8.943 54.589h57.281 191.408 57.28c-.001-20.951-3.528-39.092-8.942-54.589z" fill="#80d8e6"/><path d="m172.733 375.135h-30s-37.569 22.376-55.188 72.915c-5.415 15.497-8.943 33.638-8.943 54.589h30c0-20.951 3.528-39.092 8.943-54.589 17.618-50.539 55.188-72.915 55.188-72.915z" fill="#00c8de"/><path d="m500.234 115.286c-12.777-9.5-33.351-29.823-35.233-63.132-2.748-48.63-70.754-49.944-105.635 0l67.621 86.707c35.763 17.468 61.035 3.819 73.81-7.077 5.163-4.405 4.884-12.448-.563-16.498z" fill="#ff7e27"/><path d="m19.602 221.345c0-56.623 22.05-109.856 62.089-149.896 40.038-40.038 93.272-62.088 149.895-62.088 56.624 0 109.858 22.05 149.896 62.088 40.039 40.04 62.089 93.273 62.089 149.896z" fill="#ff995d"/><path d="m251.586 10.296c-6.609-.614-13.28-.935-20-.935-56.623 0-109.857 22.05-149.895 62.088-40.039 40.04-62.089 93.273-62.089 149.896h40c0-56.623 22.05-109.856 62.089-149.896 35.286-35.286 80.824-56.591 129.895-61.153z" fill="#ff7e27"/><path d="m366.612 223.31c0 24.593 19.937 44.53 44.53 44.53 24.594 0 44.531-19.937 44.531-44.53s-19.937-44.53-44.531-44.53c-24.593.001-44.53 19.938-44.53 44.53z" fill="#ffcabd"/><path d="m231.586 112.461s-126.225-88.827-172.575 66.86c-3.27 13.474-5.015 27.544-5.015 42.024 0 98.08 79.51 177.59 177.59 177.59s177.59-79.51 177.59-177.59c0-14.48-1.745-28.55-5.015-42.024-46.35-155.687-172.575-66.86-172.575-66.86z" fill="#ffdcce"/><path d="m83.996 221.346c0-14.48 1.745-28.55 5.015-42.024 18.711-62.849 50.439-85.847 81.625-90.931-39-5.712-86.784 7.49-111.625 90.931-.006.024-.011.049-.017.073-2.149-.397-4.46-.614-6.964-.614-24.594 0-44.531 19.937-44.531 44.53s19.937 44.53 44.531 44.53c2.876 0 5.501-.283 7.911-.804 20.162 75.936 89.363 131.898 171.645 131.898 5.053 0 10.054-.223 15-.637-91.058-7.616-162.59-83.926-162.59-176.952z" fill="#ffcabd"/><g fill="#ff9db0"><path d="m169.348 250.724c0 16.006-16.294 28.982-36.393 28.982-20.1 0-36.394-12.976-36.394-28.982s16.294-28.982 36.394-28.982c20.098 0 36.393 12.976 36.393 28.982"/><path d="m293.825 250.724c0 16.006 16.294 28.982 36.393 28.982 20.1 0 36.394-12.976 36.394-28.982s-16.294-28.982-36.394-28.982c-20.099 0-36.393 12.976-36.393 28.982"/></g></g><g><path d="m154.164 194.365c-13.687 0-24.822 11.135-24.822 24.822 0 4.143 3.358 7.5 7.5 7.5s7.5-3.357 7.5-7.5c0-5.416 4.406-9.822 9.822-9.822 5.417 0 9.823 4.406 9.823 9.822 0 4.143 3.358 7.5 7.5 7.5s7.5-3.357 7.5-7.5c0-13.687-11.136-24.822-24.823-24.822z"/><path d="m309.008 194.365c-13.687 0-24.822 11.135-24.822 24.822 0 4.143 3.358 7.5 7.5 7.5s7.5-3.357 7.5-7.5c0-5.416 4.406-9.822 9.822-9.822 5.417 0 9.823 4.406 9.823 9.822 0 4.143 3.358 7.5 7.5 7.5s7.5-3.357 7.5-7.5c0-13.687-11.136-24.822-24.823-24.822z"/><path d="m254.89 233.779c-3.123-2.721-7.86-2.397-10.582.726-3.212 3.686-7.849 5.799-12.721 5.799-4.873 0-9.509-2.114-12.721-5.799-2.722-3.123-7.459-3.447-10.582-.726-3.123 2.722-3.448 7.459-.726 10.582 6.062 6.954 14.819 10.943 24.029 10.943 9.208 0 17.967-3.988 24.029-10.943 2.721-3.122 2.396-7.86-.726-10.582z"/><path d="m143.321 423.495c-3.134.977-5.268 3.878-5.268 7.16v46.371c0 4.142 3.358 7.5 7.5 7.5s7.5-3.358 7.5-7.5v-22.312l17.685 25.609c2.137 3.086 5.728 4.389 9.148 3.321 3.476-1.086 5.722-4.299 5.721-8.257l-.434-44.892c-.04-4.142-3.403-7.465-7.572-7.427-4.142.04-7.467 3.43-7.427 7.572l.22 22.788-18.67-27.036c-1.865-2.699-5.269-3.874-8.403-2.897z"/><path d="m235.539 440.75c3.433 2.319 8.095 1.417 10.414-2.016 2.319-3.432 1.417-8.094-2.015-10.413-20.105-13.586-47.915.689-47.915 25.477 0 16.944 13.785 30.729 30.729 30.729 16.222 0 27.552-12.636 27.552-30.729 0-4.143-3.358-7.5-7.5-7.5h-13.898c-4.142 0-7.5 3.357-7.5 7.5 0 4.142 3.358 7.5 7.5 7.5h5.185c-1.669 4.64-5.188 8.229-11.339 8.229-8.673 0-15.729-7.056-15.729-15.729-.001-12.699 14.248-19.988 24.516-13.048z"/><path d="m294.391 423.068c-16.944 0-30.729 13.785-30.729 30.729s13.785 30.729 30.729 30.729 30.729-13.785 30.729-30.729-13.785-30.729-30.729-30.729zm0 46.458c-8.673 0-15.729-7.056-15.729-15.729s7.056-15.729 15.729-15.729 15.729 7.056 15.729 15.729-7.056 15.729-15.729 15.729z"/><path d="m54.519 275.275c12.649 41.451 39.483 76.768 74.823 100.277-12.989 10.43-35.973 33.008-48.877 70.024-6.213 17.78-9.363 36.979-9.363 57.063 0 4.142 3.358 7.5 7.5 7.5h305.968c4.142 0 7.5-3.358 7.5-7.5 0-22.57-3.953-44.957-12.902-66.272-1.604-3.819-5.999-5.615-9.819-4.012-3.819 1.604-5.615 6-4.011 9.819 6.963 16.584 10.766 34.301 11.571 52.965h-290.647c.676-15.667 3.481-30.644 8.365-44.62 13.371-38.354 39.142-59.797 48.476-66.573 53.674 29.249 120.719 30.653 176.97-.002 6.203 4.494 19.641 15.428 31.809 33.393 2.323 3.429 6.986 4.326 10.416 2.003s4.327-6.986 2.003-10.416c-10.852-16.02-22.552-26.974-30.486-33.362 35.347-23.509 62.187-58.83 74.838-100.287 29.558 1.456 54.52-22.26 54.52-51.965 0-14.091-5.639-26.883-14.769-36.262-1.879-12.052-4.725-23.816-8.505-35.211 24.464 6.861 47.488 1.241 65.766-14.348 8.831-7.535 8.354-21.299-.956-28.222-11.293-8.396-30.497-27.037-32.22-57.536-1.19-21.063-13.125-36.337-32.743-41.906-13.615-3.865-29.588-2.467-44.979 3.935-14.126 5.876-26.765 15.481-36.928 27.981-36.701-25.916-80.404-39.88-126.254-39.88-52.861 0-103.869 19.003-143.628 53.51-3.128 2.715-3.463 7.452-.748 10.58 2.714 3.128 7.451 3.464 10.58.749 37.031-32.139 84.547-49.839 133.796-49.839 45.117 0 87.995 14.525 123.319 41.341 38.871 29.509 65.449 71.054 75.96 116.953-6.345-2.604-13.772-4.075-21.337-3.849-12.166-37.67-33.354-73.528-70.888-86.567-45.56-15.815-92.711 9.85-107.053 18.768-31.192-19.396-71.995-30.93-107.125-18.742-37.487 13.051-58.671 48.923-70.816 86.541-7.08-.211-14.534 1.067-21.327 3.844 7.512-32.652 23-62.943 45.327-88.403 2.731-3.115 2.42-7.853-.694-10.584-3.114-2.73-7.852-2.421-10.584.694-27.415 31.263-45.219 69.317-51.601 110.194-9.128 9.379-14.766 22.17-14.766 36.259 0 29.71 24.968 53.422 54.519 51.965zm-3.899-14.961c-19.768-.744-35.62-17.057-35.62-37.004 0-19.447 15.147-35.771 34.814-36.956-4.653 24.282-4.392 49.751.806 73.96zm243.195 119.334c-96.3 37.994-201.655-18.483-226.875-115.553-7.918-30.637-6.461-64.677.557-86.854 18.665-58.92 54.143-94.213 114.019-78.975 25.815 6.576 45.445 20.111 45.761 20.333 2.623 1.841 6.083 1.765 8.62 0 .001 0 .005-.003.006-.004.002-.001.01-.007.013-.009.988-.686 48.837-33.46 93.523-21.013 36.803 10.245 56.5 46.974 67.472 83.688 6.63 27.465 6.266 55.992-.673 82.812-14.068 54.177-53.855 96.61-102.423 115.575zm118.738-119.334c5.199-24.264 5.462-49.658.806-73.96 19.436 1.171 34.814 17.295 34.814 36.956 0 19.947-15.852 36.26-35.62 37.004zm23.097-236.059c13.279 3.77 21.043 13.828 21.862 28.323 2.068 36.594 24.85 58.767 38.246 68.727 1.583 1.177 1.669 3.496.172 4.773-12.608 10.753-33.681 20.529-63.147 7.221-13.541-30.954-34.902-59.63-62.997-82.485 19.815-24.118 47.468-31.782 65.864-26.559z"/></g></g></svg>